<svg xmlns="http://www.w3.org/2000/svg" xmlns:xlink="http://www.w3.org/1999/xlink" width="49" height="49" viewBox="0 0 49 49">
  <defs>
    <clipPath id="clip-path">
      <path id="Shape" d="M20.625,17.024H2.947A2.973,2.973,0,0,1,0,14.031V6.251H23.571v7.78A2.973,2.973,0,0,1,20.625,17.024Zm-1.964-6.317a1.331,1.331,0,1,0,1.309,1.331A1.322,1.322,0,0,0,18.661,10.706Zm-3.274,0a1.331,1.331,0,1,0,1.31,1.331A1.322,1.322,0,0,0,15.387,10.706Zm8.184-7.115H0v-.6A2.973,2.973,0,0,1,2.947,0H20.625a2.973,2.973,0,0,1,2.946,2.992v.6Z" transform="translate(0 0)"/>
    </clipPath>
  </defs>
  <g id="Group_5217" data-name="Group 5217" transform="translate(-283 -157)">
    <path id="Oval" d="M24.5,0A24.5,24.5,0,1,1,0,24.5,24.5,24.5,0,0,1,24.5,0Z" transform="translate(283 157)" fill="#20926b"/>
    <g id="icons_card" data-name="icons/card" transform="translate(293 167)">
      <g id="_Icons_cards" data-name="_Icons / cards">
        <g id="Group_9" data-name="Group 9" transform="translate(3.214 6.429)">
          <path id="Shape-2" data-name="Shape" d="M20.625,17.024H2.947A2.973,2.973,0,0,1,0,14.031V6.251H23.571v7.78A2.973,2.973,0,0,1,20.625,17.024Zm-1.964-6.317a1.331,1.331,0,1,0,1.309,1.331A1.322,1.322,0,0,0,18.661,10.706Zm-3.274,0a1.331,1.331,0,1,0,1.31,1.331A1.322,1.322,0,0,0,15.387,10.706Zm8.184-7.115H0v-.6A2.973,2.973,0,0,1,2.947,0H20.625a2.973,2.973,0,0,1,2.946,2.992v.6Z" transform="translate(0 0)" fill="#fff"/>
        </g>
      </g>
    </g>
  </g>
</svg>
